<svg xmlns="http://www.w3.org/2000/svg" xmlns:xlink="http://www.w3.org/1999/xlink" width="500" zoomAndPan="magnify" viewBox="0 0 375 374.999991" height="500" preserveAspectRatio="xMidYMid meet" version="1.0"><defs><clipPath id="ecbf44c647"><path d="M 170.277344 185.277344 L 195.027344 185.277344 L 195.027344 189.777344 L 170.277344 189.777344 Z M 170.277344 185.277344 " clip-rule="nonzero"/></clipPath><clipPath id="ab8af40bb5"><path d="M 6 0.574219 L 374.882812 0.574219 L 374.882812 369 L 6 369 Z M 6 0.574219 " clip-rule="nonzero"/></clipPath></defs><g clip-path="url(#ecbf44c647)"><path fill="#000000" d="M 172.496094 185.28125 L 193.089844 185.28125 C 193.386719 185.28125 193.667969 185.335938 193.941406 185.449219 C 194.210938 185.5625 194.449219 185.722656 194.660156 185.929688 C 194.867188 186.140625 195.027344 186.378906 195.140625 186.648438 C 195.253906 186.921875 195.308594 187.203125 195.308594 187.5 C 195.308594 187.792969 195.253906 188.074219 195.140625 188.347656 C 195.027344 188.617188 194.867188 188.859375 194.660156 189.066406 C 194.449219 189.273438 194.210938 189.433594 193.941406 189.546875 C 193.667969 189.660156 193.386719 189.714844 193.089844 189.714844 L 172.496094 189.714844 C 172.199219 189.714844 171.917969 189.660156 171.648438 189.546875 C 171.375 189.433594 171.136719 189.273438 170.925781 189.066406 C 170.71875 188.859375 170.558594 188.617188 170.445312 188.347656 C 170.335938 188.074219 170.277344 187.792969 170.277344 187.5 C 170.277344 187.203125 170.335938 186.921875 170.445312 186.648438 C 170.558594 186.378906 170.71875 186.140625 170.925781 185.929688 C 171.136719 185.722656 171.375 185.5625 171.648438 185.449219 C 171.917969 185.335938 172.199219 185.28125 172.496094 185.28125 Z M 172.496094 185.28125 " fill-opacity="1" fill-rule="nonzero"/></g><path fill="#000000" d="M 173.949219 187.5 C 173.949219 187.683594 173.914062 187.859375 173.84375 188.03125 C 173.773438 188.203125 173.671875 188.351562 173.542969 188.480469 C 173.410156 188.613281 173.261719 188.714844 173.089844 188.785156 C 172.921875 188.855469 172.742188 188.890625 172.558594 188.890625 C 172.375 188.890625 172.195312 188.855469 172.027344 188.785156 C 171.855469 188.714844 171.707031 188.613281 171.574219 188.480469 C 171.445312 188.351562 171.34375 188.203125 171.273438 188.03125 C 171.203125 187.859375 171.167969 187.683594 171.167969 187.5 C 171.167969 187.3125 171.203125 187.136719 171.273438 186.964844 C 171.34375 186.796875 171.445312 186.644531 171.574219 186.515625 C 171.707031 186.382812 171.855469 186.285156 172.027344 186.214844 C 172.195312 186.144531 172.375 186.109375 172.558594 186.109375 C 172.742188 186.109375 172.921875 186.144531 173.089844 186.214844 C 173.261719 186.285156 173.410156 186.382812 173.542969 186.515625 C 173.671875 186.644531 173.773438 186.796875 173.84375 186.964844 C 173.914062 187.136719 173.949219 187.3125 173.949219 187.5 Z M 173.949219 187.5 " fill-opacity="1" fill-rule="nonzero"/><path fill="#252251" d="M 173.3125 187.421875 C 173.3125 187.421875 173.3125 187.421875 173.308594 187.425781 C 173.292969 187.429688 173.28125 187.421875 173.273438 187.40625 C 173.214844 187.195312 173.121094 187.007812 172.988281 186.835938 C 172.976562 186.820312 172.980469 186.808594 172.992188 186.796875 C 173.007812 186.785156 173.019531 186.789062 173.03125 186.800781 C 173.167969 186.980469 173.265625 187.175781 173.328125 187.390625 C 173.332031 187.40625 173.328125 187.414062 173.3125 187.421875 Z M 173.3125 187.421875 " fill-opacity="1" fill-rule="nonzero"/><path fill="#252251" d="M 173.488281 187.464844 C 173.484375 187.46875 173.484375 187.46875 173.484375 187.46875 C 173.464844 187.472656 173.453125 187.464844 173.449219 187.449219 C 173.367188 187.164062 173.238281 186.90625 173.058594 186.671875 C 173.046875 186.65625 173.050781 186.644531 173.0625 186.632812 C 173.078125 186.625 173.089844 186.625 173.101562 186.636719 C 173.285156 186.878906 173.417969 187.144531 173.503906 187.433594 C 173.507812 187.449219 173.5 187.460938 173.488281 187.464844 Z M 173.488281 187.464844 " fill-opacity="1" fill-rule="nonzero"/><path fill="#252251" d="M 172.457031 188.21875 L 172.15625 188.371094 L 171.949219 187.960938 L 172.25 187.808594 Z M 172.179688 188.296875 L 172.382812 188.195312 L 172.226562 187.882812 L 172.023438 187.984375 Z M 172.179688 188.296875 " fill-opacity="1" fill-rule="nonzero"/><path fill="#252251" d="M 172.277344 187.859375 L 171.960938 188.015625 C 171.855469 188.070312 171.773438 188.042969 171.71875 187.9375 L 171.632812 187.765625 C 171.578125 187.65625 171.605469 187.578125 171.714844 187.523438 L 172.027344 187.363281 Z M 171.738281 187.570312 C 171.664062 187.609375 171.644531 187.664062 171.683594 187.738281 L 171.769531 187.910156 C 171.808594 187.984375 171.863281 188.003906 171.9375 187.96875 L 172.203125 187.832031 L 172.003906 187.4375 Z M 171.738281 187.570312 " fill-opacity="1" fill-rule="nonzero"/><path fill="#252251" d="M 173.277344 187.738281 L 172.222656 187.875 L 171.980469 187.394531 L 172.722656 186.636719 L 172.742188 186.664062 C 173.011719 187.058594 173.183594 187.398438 173.269531 187.707031 Z M 172.253906 187.816406 L 173.207031 187.691406 C 173.121094 187.40625 172.960938 187.085938 172.714844 186.722656 L 172.046875 187.40625 Z M 172.253906 187.816406 " fill-opacity="1" fill-rule="nonzero"/><path fill="#252251" d="M 172.289062 188.140625 C 172.289062 188.179688 172.269531 188.199219 172.230469 188.199219 C 172.191406 188.199219 172.171875 188.179688 172.171875 188.140625 C 172.171875 188.101562 172.191406 188.082031 172.230469 188.082031 C 172.269531 188.082031 172.289062 188.101562 172.289062 188.140625 Z M 172.289062 188.140625 " fill-opacity="1" fill-rule="nonzero"/><path fill="#252251" d="M 173.050781 187.605469 C 173.050781 187.605469 173.046875 187.605469 173.042969 187.605469 L 172.320312 187.71875 C 172.304688 187.722656 172.292969 187.714844 172.289062 187.695312 C 172.289062 187.679688 172.292969 187.667969 172.3125 187.664062 L 173.035156 187.550781 C 173.054688 187.550781 173.0625 187.558594 173.066406 187.574219 C 173.070312 187.589844 173.0625 187.597656 173.050781 187.605469 Z M 173.050781 187.605469 " fill-opacity="1" fill-rule="nonzero"/><path fill="#252251" d="M 171.789062 187.660156 L 171.945312 187.578125 L 171.972656 187.628906 L 171.8125 187.710938 Z M 171.789062 187.660156 " fill-opacity="1" fill-rule="nonzero"/><path fill="#252251" d="M 171.832031 187.746094 L 171.992188 187.664062 L 172.015625 187.714844 L 171.855469 187.796875 Z M 171.832031 187.746094 " fill-opacity="1" fill-rule="nonzero"/><path fill="#252251" d="M 171.871094 187.828125 L 172.03125 187.746094 L 172.054688 187.796875 L 171.898438 187.875 Z M 171.871094 187.828125 " fill-opacity="1" fill-rule="nonzero"/><g clip-path="url(#ab8af40bb5)"><path fill="#ffffff" d="M 160.996094 367.964844 C 159.585938 367.335938 156.886719 366.777344 155 366.730469 C 149.925781 366.59375 118.375 356.652344 112.339844 353.285156 C 109.472656 351.6875 102.511719 347.859375 96.867188 344.777344 C 81.707031 336.503906 61.054688 318.835938 47.773438 302.777344 C 36.414062 289.046875 19.25 259.878906 17.296875 250.984375 C 16.824219 248.832031 14.730469 241.804688 12.644531 235.363281 C 6.425781 216.179688 4.367188 186.859375 7.367188 160.140625 C 10.667969 130.714844 25.914062 93.925781 43.507812 72.9375 C 46.753906 69.0625 50.566406 64.449219 51.976562 62.683594 C 55.273438 58.5625 63.90625 49.929688 68.03125 46.632812 C 69.792969 45.222656 74.40625 41.425781 78.28125 38.195312 C 82.152344 34.964844 87.34375 31.121094 89.8125 29.652344 C 103 21.8125 119.359375 13.4375 124.441406 11.925781 C 158.851562 1.703125 165.03125 0.636719 189.855469 0.652344 C 208.492188 0.664062 227.121094 2.625 235.378906 5.445312 C 238.207031 6.410156 244.847656 8.46875 250.136719 10.019531 C 259.660156 12.808594 272.660156 18.851562 285.785156 26.59375 C 289.519531 28.796875 292.917969 30.597656 293.339844 30.597656 C 293.757812 30.597656 297.628906 33.636719 301.941406 37.355469 C 306.25 41.070312 312.535156 46.316406 315.90625 49.011719 C 324.105469 55.574219 344.027344 80.371094 350.058594 91.527344 C 352.726562 96.460938 356.359375 103.097656 358.136719 106.273438 C 361.621094 112.5 369.992188 137.855469 372.199219 148.871094 C 374.636719 161.007812 374.992188 203.578125 372.769531 216.515625 C 364.914062 262.253906 341.519531 301.320312 303.875 331.578125 C 294.496094 339.117188 290.777344 341.445312 271.480469 351.84375 C 262.234375 356.828125 244.09375 363.003906 228.972656 366.3125 C 218.6875 368.5625 165.238281 369.863281 160.996094 367.964844 Z M 220.359375 347.371094 C 237.207031 338.8125 256.125 319.039062 267.375 298.21875 C 269.984375 293.386719 271.808594 288.625 271.429688 287.636719 C 270.492188 285.195312 198.953125 284.945312 196.519531 287.375 C 194.863281 289.035156 194.199219 351.320312 195.824219 352.941406 C 197.847656 354.964844 211.507812 351.859375 220.355469 347.367188 Z M 179.59375 321.105469 C 179.945312 304.175781 179.742188 289.238281 179.136719 287.910156 C 178.175781 285.792969 177.089844 285.597656 170.292969 286.308594 C 166.03125 286.753906 149.929688 287.117188 134.515625 287.117188 C 107.625 287.117188 106.488281 287.21875 106.488281 289.605469 C 106.488281 290.976562 107 292.414062 107.628906 292.800781 C 108.257812 293.191406 110.347656 296.542969 112.269531 300.253906 C 125.863281 326.460938 156.929688 352.9375 173.183594 352.164062 L 178.957031 351.886719 L 179.597656 321.105469 Z M 265.914062 338.066406 C 269.582031 335.757812 275.371094 332.4375 278.78125 330.691406 C 293.011719 323.402344 327.550781 290.96875 325.175781 287.125 C 323.953125 285.148438 291.808594 285.4375 290.238281 287.4375 C 289.542969 288.320312 285.953125 294.898438 282.261719 302.054688 C 278.566406 309.214844 270.984375 320.925781 265.40625 328.082031 C 259.832031 335.238281 255.269531 341.355469 255.269531 341.679688 C 255.269531 343.394531 260.007812 341.785156 265.914062 338.066406 Z M 119.152344 336.050781 C 118.183594 334.75 113.871094 329.042969 109.566406 323.371094 C 105.261719 317.699219 99.273438 308.230469 96.261719 302.332031 C 88.09375 286.335938 89.355469 287.117188 71.660156 287.117188 C 58.886719 287.117188 56.46875 287.429688 56.46875 289.078125 C 56.46875 291.597656 79.183594 314.429688 89.0625 321.832031 C 105.546875 334.191406 124.378906 343.089844 119.152344 336.050781 Z M 81.539062 270.34375 C 82.007812 269.585938 81.492188 266.554688 80.394531 263.609375 C 77.136719 254.894531 70.921875 220.769531 70.101562 207.113281 C 69.683594 200.148438 68.683594 193.65625 67.878906 192.683594 C 66.746094 191.320312 61.734375 190.925781 45.730469 190.941406 C 34.351562 190.953125 24.195312 191.496094 23.160156 192.152344 C 17.644531 195.640625 26.4375 237.507812 37.023438 258.191406 C 44.136719 272.089844 43.429688 271.726562 63.445312 271.726562 C 74.375 271.726562 81 271.222656 81.539062 270.34375 Z M 179.648438 268.382812 C 180.410156 266.378906 180.78125 250.339844 180.578125 228.304688 L 180.238281 191.5625 L 134.066406 191.253906 C 108.613281 191.082031 87.089844 191.457031 86.101562 192.085938 C 84.597656 193.046875 84.539062 195.871094 85.742188 209.710938 C 88.042969 236.199219 95.578125 267.613281 100.359375 270.644531 C 101.261719 271.21875 119.183594 271.695312 140.1875 271.707031 L 178.378906 271.726562 L 179.648438 268.386719 Z M 280.105469 267.558594 C 287.191406 256.246094 297.179688 194.476562 292.402344 191.527344 C 290.519531 190.363281 198.472656 190.777344 197.316406 191.953125 C 196.121094 193.175781 194.402344 262.8125 195.46875 267.050781 L 196.320312 270.445312 L 278.296875 270.445312 Z M 338.203125 267.558594 C 343.394531 261.742188 347.734375 252.285156 352.59375 236.222656 C 358.460938 216.835938 361.867188 192.613281 358.984375 190.789062 C 356.105469 188.960938 313.839844 189.367188 311.347656 191.242188 C 309.695312 192.488281 308.921875 196.550781 307.898438 209.339844 C 306.460938 227.351562 302.207031 251.964844 299.382812 258.621094 C 298.402344 260.9375 297.597656 264.546875 297.597656 266.640625 L 297.597656 270.441406 L 316.613281 270.441406 C 334.714844 270.441406 335.75 270.304688 338.203125 267.558594 Z M 68.464844 174.128906 C 69.3125 172.921875 70.164062 167.691406 70.359375 162.511719 C 70.867188 149.152344 77.625 112.429688 80.664062 106.507812 C 83.132812 101.699219 81.289062 101.144531 62.773438 101.144531 C 46.738281 101.144531 44.667969 101.398438 42.402344 103.664062 C 38.722656 107.347656 34.027344 117.183594 30.089844 129.476562 C 28.1875 135.410156 25.84375 142.730469 24.882812 145.742188 C 22.171875 154.21875 21.09375 172.453125 23.152344 174.933594 C 24.59375 176.667969 27.964844 176.921875 45.886719 176.644531 C 64.058594 176.367188 67.136719 176.023438 68.464844 174.125 Z M 180.875 139.621094 C 181.230469 120.222656 181.015625 103.628906 180.398438 102.746094 C 179.542969 101.523438 169.988281 101.148438 139.996094 101.164062 C 118.390625 101.175781 100.097656 101.605469 99.34375 102.125 C 96.980469 103.75 93.535156 114.066406 90.375 128.972656 C 87.082031 144.511719 84.042969 170.734375 85.1875 173.71875 C 85.789062 175.289062 92.980469 175.515625 133.066406 175.230469 L 180.234375 174.894531 Z M 292.171875 173.929688 C 295.390625 169.976562 288.816406 124.847656 282.59375 108.199219 L 280.195312 101.785156 L 196.910156 101.785156 L 196.265625 136.832031 C 195.914062 156.109375 196.085938 172.703125 196.652344 173.707031 C 198.070312 176.238281 290.117188 176.453125 292.171875 173.933594 Z M 358.1875 173.929688 C 360.054688 172.492188 360.101562 171.085938 358.644531 160.144531 C 355.886719 139.460938 343.429688 105.574219 336.820312 100.777344 C 334.664062 99.210938 299.09375 100.410156 297.402344 102.105469 C 296.320312 103.1875 296.503906 104.726562 298.121094 108.136719 C 299.316406 110.652344 301.125 117.46875 302.140625 123.28125 C 303.160156 129.09375 304.589844 135.871094 305.316406 138.339844 C 306.046875 140.808594 307.003906 149.371094 307.449219 157.367188 C 308 167.277344 308.835938 172.484375 310.074219 173.71875 C 312.535156 176.183594 355.019531 176.367188 358.1875 173.929688 Z M 86.226562 85.433594 C 87.34375 84.550781 91.339844 77.769531 95.105469 70.363281 C 98.871094 62.957031 106.175781 51.472656 111.34375 44.84375 C 116.699219 37.96875 120.253906 32.308594 119.613281 31.671875 C 118.152344 30.207031 96.9375 42.425781 86.773438 50.582031 C 71.9375 62.492188 53.320312 82.390625 54.394531 85.191406 C 55.34375 87.660156 83.136719 87.871094 86.226562 85.433594 Z M 180.4375 84.308594 C 181.796875 83.175781 182.160156 76.035156 182.160156 50.351562 L 182.160156 17.824219 L 178.953125 17.019531 C 174.738281 15.960938 171.171875 16.941406 159.683594 22.320312 C 147.84375 27.863281 133.382812 40.261719 123.328125 53.480469 C 113.953125 65.808594 104.019531 84.226562 106.066406 85.492188 C 108.550781 87.035156 178.496094 85.917969 180.4375 84.304688 Z M 272.476562 84.640625 C 273.527344 82.941406 262.613281 63.496094 254.75 53.046875 C 244.847656 39.890625 232.117188 28.945312 219.722656 22.933594 C 207.773438 17.136719 203.863281 15.945312 200.410156 17.042969 C 198.109375 17.769531 197.902344 19.84375 197.082031 50.015625 C 196.445312 73.476562 196.605469 82.691406 197.675781 83.980469 C 198.863281 85.414062 206.136719 85.753906 235.46875 85.753906 C 255.445312 85.753906 272.097656 85.253906 272.476562 84.640625 Z M 326.347656 84.636719 C 327.335938 83.039062 312.328125 65.867188 302.617188 57.488281 C 289.835938 46.457031 284.863281 42.890625 274.757812 37.511719 L 261.292969 30.34375 C 259.035156 29.144531 256.777344 28.132812 256.273438 28.097656 C 254.777344 28 259.828125 35.71875 267.75 45.644531 C 271.816406 50.742188 278.609375 61.546875 282.84375 69.652344 C 287.074219 77.761719 291.402344 84.632812 292.460938 84.925781 C 296.277344 85.980469 325.675781 85.726562 326.347656 84.636719 Z M 326.347656 84.636719 " fill-opacity="1" fill-rule="nonzero"/></g></svg>