<svg xmlns="http://www.w3.org/2000/svg" xmlns:xlink="http://www.w3.org/1999/xlink" width="500" height="500" zoomAndPan="magnify" viewBox="0 0 375 374.999991"  preserveAspectRatio="xMidYMid meet" version="1.0"><defs><clipPath id="9f46ccc84a"><path d="M 170.277344 185.277344 L 195.027344 185.277344 L 195.027344 189.777344 L 170.277344 189.777344 Z M 170.277344 185.277344 " clip-rule="nonzero"/></clipPath><clipPath id="ee120863f3"><path d="M 98 16.707031 L 348.664062 16.707031 L 348.664062 305 L 98 305 Z M 98 16.707031 " clip-rule="nonzero"/></clipPath><clipPath id="7296e0df02"><path d="M 41.914062 70 L 292 70 L 292 357.957031 L 41.914062 357.957031 Z M 41.914062 70 " clip-rule="nonzero"/></clipPath><clipPath id="e6f19d0722"><path d="M 236 16.707031 L 348.664062 16.707031 L 348.664062 113 L 236 113 Z M 236 16.707031 " clip-rule="nonzero"/></clipPath></defs><g clip-path="url(#9f46ccc84a)"><path fill="#000000" d="M 172.496094 185.28125 L 193.089844 185.28125 C 193.386719 185.28125 193.667969 185.335938 193.941406 185.449219 C 194.210938 185.5625 194.449219 185.722656 194.660156 185.929688 C 194.867188 186.140625 195.027344 186.378906 195.140625 186.648438 C 195.253906 186.921875 195.308594 187.203125 195.308594 187.5 C 195.308594 187.792969 195.253906 188.074219 195.140625 188.347656 C 195.027344 188.617188 194.867188 188.859375 194.660156 189.066406 C 194.449219 189.273438 194.210938 189.433594 193.941406 189.546875 C 193.667969 189.660156 193.386719 189.714844 193.089844 189.714844 L 172.496094 189.714844 C 172.199219 189.714844 171.917969 189.660156 171.648438 189.546875 C 171.375 189.433594 171.136719 189.273438 170.925781 189.066406 C 170.71875 188.859375 170.558594 188.617188 170.445312 188.347656 C 170.335938 188.074219 170.277344 187.792969 170.277344 187.5 C 170.277344 187.203125 170.335938 186.921875 170.445312 186.648438 C 170.558594 186.378906 170.71875 186.140625 170.925781 185.929688 C 171.136719 185.722656 171.375 185.5625 171.648438 185.449219 C 171.917969 185.335938 172.199219 185.28125 172.496094 185.28125 Z M 172.496094 185.28125 " fill-opacity="1" fill-rule="nonzero"/></g><path fill="#000000" d="M 173.949219 187.5 C 173.949219 187.683594 173.914062 187.859375 173.84375 188.03125 C 173.773438 188.203125 173.671875 188.351562 173.542969 188.480469 C 173.410156 188.613281 173.261719 188.714844 173.089844 188.785156 C 172.921875 188.855469 172.742188 188.890625 172.558594 188.890625 C 172.375 188.890625 172.195312 188.855469 172.027344 188.785156 C 171.855469 188.714844 171.707031 188.613281 171.574219 188.480469 C 171.445312 188.351562 171.34375 188.203125 171.273438 188.03125 C 171.203125 187.859375 171.167969 187.683594 171.167969 187.5 C 171.167969 187.3125 171.203125 187.136719 171.273438 186.964844 C 171.34375 186.796875 171.445312 186.644531 171.574219 186.515625 C 171.707031 186.382812 171.855469 186.285156 172.027344 186.214844 C 172.195312 186.144531 172.375 186.109375 172.558594 186.109375 C 172.742188 186.109375 172.921875 186.144531 173.089844 186.214844 C 173.261719 186.285156 173.410156 186.382812 173.542969 186.515625 C 173.671875 186.644531 173.773438 186.796875 173.84375 186.964844 C 173.914062 187.136719 173.949219 187.3125 173.949219 187.5 Z M 173.949219 187.5 " fill-opacity="1" fill-rule="nonzero"/><path fill="#252251" d="M 173.3125 187.421875 C 173.3125 187.421875 173.3125 187.421875 173.308594 187.425781 C 173.292969 187.429688 173.28125 187.421875 173.273438 187.40625 C 173.214844 187.195312 173.121094 187.007812 172.988281 186.835938 C 172.976562 186.820312 172.980469 186.808594 172.992188 186.796875 C 173.007812 186.785156 173.019531 186.789062 173.03125 186.800781 C 173.167969 186.980469 173.265625 187.175781 173.328125 187.390625 C 173.332031 187.40625 173.328125 187.414062 173.3125 187.421875 Z M 173.3125 187.421875 " fill-opacity="1" fill-rule="nonzero"/><path fill="#252251" d="M 173.488281 187.464844 C 173.484375 187.46875 173.484375 187.46875 173.484375 187.46875 C 173.464844 187.472656 173.453125 187.464844 173.449219 187.449219 C 173.367188 187.164062 173.238281 186.90625 173.058594 186.671875 C 173.046875 186.65625 173.050781 186.644531 173.0625 186.632812 C 173.078125 186.625 173.089844 186.625 173.101562 186.636719 C 173.285156 186.878906 173.417969 187.144531 173.503906 187.433594 C 173.507812 187.449219 173.5 187.460938 173.488281 187.464844 Z M 173.488281 187.464844 " fill-opacity="1" fill-rule="nonzero"/><path fill="#252251" d="M 172.457031 188.21875 L 172.15625 188.371094 L 171.949219 187.960938 L 172.25 187.808594 Z M 172.179688 188.296875 L 172.382812 188.195312 L 172.226562 187.882812 L 172.023438 187.984375 Z M 172.179688 188.296875 " fill-opacity="1" fill-rule="nonzero"/><path fill="#252251" d="M 172.277344 187.859375 L 171.960938 188.015625 C 171.855469 188.070312 171.773438 188.042969 171.71875 187.9375 L 171.632812 187.765625 C 171.578125 187.65625 171.605469 187.578125 171.714844 187.523438 L 172.027344 187.363281 Z M 171.738281 187.570312 C 171.664062 187.609375 171.644531 187.664062 171.683594 187.738281 L 171.769531 187.910156 C 171.808594 187.984375 171.863281 188.003906 171.9375 187.96875 L 172.203125 187.832031 L 172.003906 187.4375 Z M 171.738281 187.570312 " fill-opacity="1" fill-rule="nonzero"/><path fill="#252251" d="M 173.277344 187.738281 L 172.222656 187.875 L 171.980469 187.394531 L 172.722656 186.636719 L 172.742188 186.664062 C 173.011719 187.058594 173.183594 187.398438 173.269531 187.707031 Z M 172.253906 187.816406 L 173.207031 187.691406 C 173.121094 187.40625 172.960938 187.085938 172.714844 186.722656 L 172.046875 187.40625 Z M 172.253906 187.816406 " fill-opacity="1" fill-rule="nonzero"/><path fill="#252251" d="M 172.289062 188.140625 C 172.289062 188.179688 172.269531 188.199219 172.230469 188.199219 C 172.191406 188.199219 172.171875 188.179688 172.171875 188.140625 C 172.171875 188.101562 172.191406 188.082031 172.230469 188.082031 C 172.269531 188.082031 172.289062 188.101562 172.289062 188.140625 Z M 172.289062 188.140625 " fill-opacity="1" fill-rule="nonzero"/><path fill="#252251" d="M 173.050781 187.605469 C 173.050781 187.605469 173.046875 187.605469 173.042969 187.605469 L 172.320312 187.71875 C 172.304688 187.722656 172.292969 187.714844 172.289062 187.695312 C 172.289062 187.679688 172.292969 187.667969 172.3125 187.664062 L 173.035156 187.550781 C 173.054688 187.550781 173.0625 187.558594 173.066406 187.574219 C 173.070312 187.589844 173.0625 187.597656 173.050781 187.605469 Z M 173.050781 187.605469 " fill-opacity="1" fill-rule="nonzero"/><path fill="#252251" d="M 171.789062 187.660156 L 171.945312 187.578125 L 171.972656 187.628906 L 171.8125 187.710938 Z M 171.789062 187.660156 " fill-opacity="1" fill-rule="nonzero"/><path fill="#252251" d="M 171.832031 187.746094 L 171.992188 187.664062 L 172.015625 187.714844 L 171.855469 187.796875 Z M 171.832031 187.746094 " fill-opacity="1" fill-rule="nonzero"/><path fill="#252251" d="M 171.871094 187.828125 L 172.03125 187.746094 L 172.054688 187.796875 L 171.898438 187.875 Z M 171.871094 187.828125 " fill-opacity="1" fill-rule="nonzero"/><g clip-path="url(#ee120863f3)"><path fill="#ffffff" d="M 114.410156 16.890625 C 105.566406 16.890625 98.445312 24.011719 98.445312 32.855469 L 98.445312 288.304688 C 98.445312 297.148438 105.566406 304.269531 114.410156 304.269531 L 332.609375 304.269531 C 341.453125 304.269531 348.574219 297.148438 348.574219 288.304688 L 348.574219 123.328125 L 242.136719 123.328125 C 233.292969 123.328125 226.171875 116.207031 226.171875 107.363281 L 226.171875 16.890625 Z M 114.410156 16.890625 " fill-opacity="1" fill-rule="nonzero"/></g><g clip-path="url(#7296e0df02)"><path fill="#ffffff" d="M 57.789062 70.695312 C 48.941406 70.695312 41.820312 77.816406 41.820312 86.660156 L 41.820312 342.109375 C 41.820312 350.953125 48.941406 358.074219 57.789062 358.074219 L 275.984375 358.074219 C 284.828125 358.074219 291.949219 350.953125 291.949219 342.109375 L 291.949219 323.480469 L 97.703125 323.480469 C 88.855469 323.480469 81.734375 316.359375 81.734375 307.515625 L 81.734375 70.695312 Z M 57.789062 70.695312 " fill-opacity="1" fill-rule="nonzero"/></g><g clip-path="url(#e6f19d0722)"><path fill="#ffffff" d="M 236.8125 16.890625 L 236.8125 96.71875 C 236.8125 105.5625 243.933594 112.683594 252.78125 112.683594 L 348.574219 112.683594 Z M 236.8125 16.890625 " fill-opacity="1" fill-rule="nonzero"/></g></svg>