<svg xmlns="http://www.w3.org/2000/svg" xmlns:xlink="http://www.w3.org/1999/xlink" width="500" zoomAndPan="magnify" viewBox="0 0 375 374.999991" height="500" preserveAspectRatio="xMidYMid meet" version="1.0"><defs><clipPath id="31b8521971"><path d="M 170.277344 185.277344 L 195.027344 185.277344 L 195.027344 189.777344 L 170.277344 189.777344 Z M 170.277344 185.277344 " clip-rule="nonzero"/></clipPath><clipPath id="784c32befc"><path d="M 31.429688 21.390625 L 359.179688 21.390625 L 359.179688 349.140625 L 31.429688 349.140625 Z M 31.429688 21.390625 " clip-rule="nonzero"/></clipPath></defs><g clip-path="url(#31b8521971)"><path fill="#000000" d="M 172.496094 185.28125 L 193.089844 185.28125 C 193.386719 185.28125 193.667969 185.335938 193.941406 185.449219 C 194.210938 185.5625 194.449219 185.722656 194.660156 185.929688 C 194.867188 186.140625 195.027344 186.378906 195.140625 186.648438 C 195.253906 186.921875 195.308594 187.203125 195.308594 187.5 C 195.308594 187.792969 195.253906 188.074219 195.140625 188.347656 C 195.027344 188.617188 194.867188 188.859375 194.660156 189.066406 C 194.449219 189.273438 194.210938 189.433594 193.941406 189.546875 C 193.667969 189.660156 193.386719 189.714844 193.089844 189.714844 L 172.496094 189.714844 C 172.199219 189.714844 171.917969 189.660156 171.648438 189.546875 C 171.375 189.433594 171.136719 189.273438 170.925781 189.066406 C 170.71875 188.859375 170.558594 188.617188 170.445312 188.347656 C 170.335938 188.074219 170.277344 187.792969 170.277344 187.5 C 170.277344 187.203125 170.335938 186.921875 170.445312 186.648438 C 170.558594 186.378906 170.71875 186.140625 170.925781 185.929688 C 171.136719 185.722656 171.375 185.5625 171.648438 185.449219 C 171.917969 185.335938 172.199219 185.28125 172.496094 185.28125 Z M 172.496094 185.28125 " fill-opacity="1" fill-rule="nonzero"/></g><path fill="#000000" d="M 173.949219 187.5 C 173.949219 187.683594 173.914062 187.859375 173.84375 188.03125 C 173.773438 188.203125 173.671875 188.351562 173.542969 188.480469 C 173.410156 188.613281 173.261719 188.714844 173.089844 188.785156 C 172.921875 188.855469 172.742188 188.890625 172.558594 188.890625 C 172.375 188.890625 172.195312 188.855469 172.027344 188.785156 C 171.855469 188.714844 171.707031 188.613281 171.574219 188.480469 C 171.445312 188.351562 171.34375 188.203125 171.273438 188.03125 C 171.203125 187.859375 171.167969 187.683594 171.167969 187.5 C 171.167969 187.3125 171.203125 187.136719 171.273438 186.964844 C 171.34375 186.796875 171.445312 186.644531 171.574219 186.515625 C 171.707031 186.382812 171.855469 186.285156 172.027344 186.214844 C 172.195312 186.144531 172.375 186.109375 172.558594 186.109375 C 172.742188 186.109375 172.921875 186.144531 173.089844 186.214844 C 173.261719 186.285156 173.410156 186.382812 173.542969 186.515625 C 173.671875 186.644531 173.773438 186.796875 173.84375 186.964844 C 173.914062 187.136719 173.949219 187.3125 173.949219 187.5 Z M 173.949219 187.5 " fill-opacity="1" fill-rule="nonzero"/><path fill="#252251" d="M 173.3125 187.421875 C 173.3125 187.421875 173.3125 187.421875 173.308594 187.425781 C 173.292969 187.429688 173.28125 187.421875 173.273438 187.40625 C 173.214844 187.195312 173.121094 187.007812 172.988281 186.835938 C 172.976562 186.820312 172.980469 186.808594 172.992188 186.796875 C 173.007812 186.785156 173.019531 186.789062 173.03125 186.800781 C 173.167969 186.980469 173.265625 187.175781 173.328125 187.390625 C 173.332031 187.40625 173.328125 187.414062 173.3125 187.421875 Z M 173.3125 187.421875 " fill-opacity="1" fill-rule="nonzero"/><path fill="#252251" d="M 173.488281 187.464844 C 173.484375 187.46875 173.484375 187.46875 173.484375 187.46875 C 173.464844 187.472656 173.453125 187.464844 173.449219 187.449219 C 173.367188 187.164062 173.238281 186.90625 173.058594 186.671875 C 173.046875 186.65625 173.050781 186.644531 173.0625 186.632812 C 173.078125 186.625 173.089844 186.625 173.101562 186.636719 C 173.285156 186.878906 173.417969 187.144531 173.503906 187.433594 C 173.507812 187.449219 173.5 187.460938 173.488281 187.464844 Z M 173.488281 187.464844 " fill-opacity="1" fill-rule="nonzero"/><path fill="#252251" d="M 172.457031 188.21875 L 172.15625 188.371094 L 171.949219 187.960938 L 172.25 187.808594 Z M 172.179688 188.296875 L 172.382812 188.195312 L 172.226562 187.882812 L 172.023438 187.984375 Z M 172.179688 188.296875 " fill-opacity="1" fill-rule="nonzero"/><path fill="#252251" d="M 172.277344 187.859375 L 171.960938 188.015625 C 171.855469 188.070312 171.773438 188.042969 171.71875 187.9375 L 171.632812 187.765625 C 171.578125 187.65625 171.605469 187.578125 171.714844 187.523438 L 172.027344 187.363281 Z M 171.738281 187.570312 C 171.664062 187.609375 171.644531 187.664062 171.683594 187.738281 L 171.769531 187.910156 C 171.808594 187.984375 171.863281 188.003906 171.9375 187.96875 L 172.203125 187.832031 L 172.003906 187.4375 Z M 171.738281 187.570312 " fill-opacity="1" fill-rule="nonzero"/><path fill="#252251" d="M 173.277344 187.738281 L 172.222656 187.875 L 171.980469 187.394531 L 172.722656 186.636719 L 172.742188 186.664062 C 173.011719 187.058594 173.183594 187.398438 173.269531 187.707031 Z M 172.253906 187.816406 L 173.207031 187.691406 C 173.121094 187.40625 172.960938 187.085938 172.714844 186.722656 L 172.046875 187.40625 Z M 172.253906 187.816406 " fill-opacity="1" fill-rule="nonzero"/><path fill="#252251" d="M 172.289062 188.140625 C 172.289062 188.179688 172.269531 188.199219 172.230469 188.199219 C 172.191406 188.199219 172.171875 188.179688 172.171875 188.140625 C 172.171875 188.101562 172.191406 188.082031 172.230469 188.082031 C 172.269531 188.082031 172.289062 188.101562 172.289062 188.140625 Z M 172.289062 188.140625 " fill-opacity="1" fill-rule="nonzero"/><path fill="#252251" d="M 173.050781 187.605469 C 173.050781 187.605469 173.046875 187.605469 173.042969 187.605469 L 172.320312 187.71875 C 172.304688 187.722656 172.292969 187.714844 172.289062 187.695312 C 172.289062 187.679688 172.292969 187.667969 172.3125 187.664062 L 173.035156 187.550781 C 173.054688 187.550781 173.0625 187.558594 173.066406 187.574219 C 173.070312 187.589844 173.0625 187.597656 173.050781 187.605469 Z M 173.050781 187.605469 " fill-opacity="1" fill-rule="nonzero"/><path fill="#252251" d="M 171.789062 187.660156 L 171.945312 187.578125 L 171.972656 187.628906 L 171.8125 187.710938 Z M 171.789062 187.660156 " fill-opacity="1" fill-rule="nonzero"/><path fill="#252251" d="M 171.832031 187.746094 L 171.992188 187.664062 L 172.015625 187.714844 L 171.855469 187.796875 Z M 171.832031 187.746094 " fill-opacity="1" fill-rule="nonzero"/><path fill="#252251" d="M 171.871094 187.828125 L 172.03125 187.746094 L 172.054688 187.796875 L 171.898438 187.875 Z M 171.871094 187.828125 " fill-opacity="1" fill-rule="nonzero"/><g clip-path="url(#784c32befc)"><path fill="#ffffff" d="M 49.636719 21.390625 L 304.574219 21.390625 L 353.867188 70.683594 C 355.574219 72.390625 356.890625 74.359375 357.8125 76.589844 C 358.738281 78.820312 359.199219 81.140625 359.203125 83.554688 L 359.203125 330.953125 C 359.203125 331.550781 359.171875 332.144531 359.113281 332.738281 C 359.054688 333.332031 358.96875 333.921875 358.851562 334.503906 C 358.734375 335.089844 358.589844 335.667969 358.417969 336.238281 C 358.246094 336.808594 358.042969 337.371094 357.816406 337.921875 C 357.585938 338.472656 357.332031 339.011719 357.050781 339.535156 C 356.769531 340.0625 356.464844 340.574219 356.132812 341.070312 C 355.800781 341.566406 355.445312 342.042969 355.066406 342.503906 C 354.691406 342.964844 354.289062 343.40625 353.867188 343.828125 C 353.445312 344.25 353.003906 344.652344 352.542969 345.027344 C 352.082031 345.40625 351.605469 345.761719 351.109375 346.09375 C 350.613281 346.425781 350.101562 346.730469 349.574219 347.011719 C 349.050781 347.292969 348.511719 347.546875 347.960938 347.777344 C 347.410156 348.003906 346.847656 348.207031 346.277344 348.378906 C 345.707031 348.550781 345.128906 348.695312 344.542969 348.8125 C 343.960938 348.929688 343.371094 349.015625 342.777344 349.074219 C 342.183594 349.132812 341.589844 349.164062 340.992188 349.164062 L 49.636719 349.164062 C 49.042969 349.164062 48.445312 349.132812 47.851562 349.074219 C 47.257812 349.015625 46.671875 348.929688 46.085938 348.8125 C 45.5 348.695312 44.921875 348.550781 44.351562 348.378906 C 43.78125 348.207031 43.21875 348.003906 42.667969 347.777344 C 42.117188 347.546875 41.578125 347.292969 41.054688 347.011719 C 40.527344 346.730469 40.015625 346.425781 39.519531 346.09375 C 39.023438 345.761719 38.546875 345.40625 38.085938 345.027344 C 37.625 344.652344 37.183594 344.25 36.761719 343.828125 C 36.339844 343.40625 35.941406 342.964844 35.5625 342.503906 C 35.183594 342.042969 34.828125 341.566406 34.496094 341.070312 C 34.164062 340.574219 33.859375 340.0625 33.578125 339.535156 C 33.296875 339.011719 33.042969 338.472656 32.8125 337.921875 C 32.585938 337.371094 32.386719 336.808594 32.210938 336.238281 C 32.039062 335.667969 31.894531 335.089844 31.777344 334.503906 C 31.660156 333.921875 31.574219 333.332031 31.515625 332.738281 C 31.457031 332.144531 31.429688 331.550781 31.429688 330.953125 L 31.429688 39.597656 C 31.429688 39.003906 31.457031 38.40625 31.515625 37.8125 C 31.574219 37.21875 31.660156 36.632812 31.777344 36.046875 C 31.894531 35.460938 32.039062 34.882812 32.210938 34.3125 C 32.386719 33.742188 32.585938 33.179688 32.8125 32.628906 C 33.042969 32.078125 33.296875 31.539062 33.578125 31.015625 C 33.859375 30.488281 34.164062 29.976562 34.496094 29.480469 C 34.828125 28.984375 35.183594 28.507812 35.5625 28.046875 C 35.941406 27.585938 36.339844 27.144531 36.761719 26.722656 C 37.183594 26.300781 37.625 25.902344 38.085938 25.523438 C 38.546875 25.144531 39.023438 24.789062 39.519531 24.457031 C 40.015625 24.125 40.527344 23.820312 41.054688 23.539062 C 41.578125 23.257812 42.117188 23.003906 42.667969 22.773438 C 43.21875 22.546875 43.78125 22.347656 44.351562 22.171875 C 44.921875 22 45.5 21.855469 46.085938 21.738281 C 46.671875 21.621094 47.257812 21.535156 47.851562 21.476562 C 48.445312 21.417969 49.042969 21.390625 49.636719 21.390625 Z M 104.265625 39.597656 L 104.265625 130.648438 L 268.152344 130.648438 L 268.152344 39.597656 Z M 86.058594 185.277344 L 86.058594 312.742188 L 304.574219 312.742188 L 304.574219 185.277344 Z M 213.523438 57.808594 L 249.945312 57.808594 L 249.945312 112.4375 L 213.523438 112.4375 Z M 213.523438 57.808594 " fill-opacity="1" fill-rule="nonzero"/></g></svg>