<svg xmlns="http://www.w3.org/2000/svg" xmlns:xlink="http://www.w3.org/1999/xlink" width="500" zoomAndPan="magnify" viewBox="0 0 375 374.999991" height="500" preserveAspectRatio="xMidYMid meet" version="1.0"><defs><clipPath id="58a9e3219e"><path d="M 170.277344 185.277344 L 195.027344 185.277344 L 195.027344 189.777344 L 170.277344 189.777344 Z M 170.277344 185.277344 " clip-rule="nonzero"/></clipPath><clipPath id="853b6cb15e"><path d="M 224 225 L 351 225 L 351 352.5 L 224 352.5 Z M 224 225 " clip-rule="nonzero"/></clipPath></defs><g clip-path="url(#58a9e3219e)"><path fill="#000000" d="M 172.496094 185.28125 L 193.089844 185.28125 C 193.386719 185.28125 193.667969 185.335938 193.941406 185.449219 C 194.210938 185.5625 194.449219 185.722656 194.660156 185.929688 C 194.867188 186.140625 195.027344 186.378906 195.140625 186.648438 C 195.253906 186.921875 195.308594 187.203125 195.308594 187.5 C 195.308594 187.792969 195.253906 188.074219 195.140625 188.347656 C 195.027344 188.617188 194.867188 188.859375 194.660156 189.066406 C 194.449219 189.273438 194.210938 189.433594 193.941406 189.546875 C 193.667969 189.660156 193.386719 189.714844 193.089844 189.714844 L 172.496094 189.714844 C 172.199219 189.714844 171.917969 189.660156 171.648438 189.546875 C 171.375 189.433594 171.136719 189.273438 170.925781 189.066406 C 170.71875 188.859375 170.558594 188.617188 170.445312 188.347656 C 170.335938 188.074219 170.277344 187.792969 170.277344 187.5 C 170.277344 187.203125 170.335938 186.921875 170.445312 186.648438 C 170.558594 186.378906 170.71875 186.140625 170.925781 185.929688 C 171.136719 185.722656 171.375 185.5625 171.648438 185.449219 C 171.917969 185.335938 172.199219 185.28125 172.496094 185.28125 Z M 172.496094 185.28125 " fill-opacity="1" fill-rule="nonzero"/></g><path fill="#000000" d="M 173.949219 187.5 C 173.949219 187.683594 173.914062 187.859375 173.84375 188.03125 C 173.773438 188.203125 173.671875 188.351562 173.542969 188.480469 C 173.410156 188.613281 173.261719 188.714844 173.089844 188.785156 C 172.921875 188.855469 172.742188 188.890625 172.558594 188.890625 C 172.375 188.890625 172.195312 188.855469 172.027344 188.785156 C 171.855469 188.714844 171.707031 188.613281 171.574219 188.480469 C 171.445312 188.351562 171.34375 188.203125 171.273438 188.03125 C 171.203125 187.859375 171.167969 187.683594 171.167969 187.5 C 171.167969 187.3125 171.203125 187.136719 171.273438 186.964844 C 171.34375 186.796875 171.445312 186.644531 171.574219 186.515625 C 171.707031 186.382812 171.855469 186.285156 172.027344 186.214844 C 172.195312 186.144531 172.375 186.109375 172.558594 186.109375 C 172.742188 186.109375 172.921875 186.144531 173.089844 186.214844 C 173.261719 186.285156 173.410156 186.382812 173.542969 186.515625 C 173.671875 186.644531 173.773438 186.796875 173.84375 186.964844 C 173.914062 187.136719 173.949219 187.3125 173.949219 187.5 Z M 173.949219 187.5 " fill-opacity="1" fill-rule="nonzero"/><path fill="#252251" d="M 173.3125 187.421875 C 173.3125 187.421875 173.3125 187.421875 173.308594 187.425781 C 173.292969 187.429688 173.28125 187.421875 173.273438 187.40625 C 173.214844 187.195312 173.121094 187.007812 172.988281 186.835938 C 172.976562 186.820312 172.980469 186.808594 172.992188 186.796875 C 173.007812 186.785156 173.019531 186.789062 173.03125 186.800781 C 173.167969 186.980469 173.265625 187.175781 173.328125 187.390625 C 173.332031 187.40625 173.328125 187.414062 173.3125 187.421875 Z M 173.3125 187.421875 " fill-opacity="1" fill-rule="nonzero"/><path fill="#252251" d="M 173.488281 187.464844 C 173.484375 187.46875 173.484375 187.46875 173.484375 187.46875 C 173.464844 187.472656 173.453125 187.464844 173.449219 187.449219 C 173.367188 187.164062 173.238281 186.90625 173.058594 186.671875 C 173.046875 186.65625 173.050781 186.644531 173.0625 186.632812 C 173.078125 186.625 173.089844 186.625 173.101562 186.636719 C 173.285156 186.878906 173.417969 187.144531 173.503906 187.433594 C 173.507812 187.449219 173.5 187.460938 173.488281 187.464844 Z M 173.488281 187.464844 " fill-opacity="1" fill-rule="nonzero"/><path fill="#252251" d="M 172.457031 188.21875 L 172.15625 188.371094 L 171.949219 187.960938 L 172.25 187.808594 Z M 172.179688 188.296875 L 172.382812 188.195312 L 172.226562 187.882812 L 172.023438 187.984375 Z M 172.179688 188.296875 " fill-opacity="1" fill-rule="nonzero"/><path fill="#252251" d="M 172.277344 187.859375 L 171.960938 188.015625 C 171.855469 188.070312 171.773438 188.042969 171.71875 187.9375 L 171.632812 187.765625 C 171.578125 187.65625 171.605469 187.578125 171.714844 187.523438 L 172.027344 187.363281 Z M 171.738281 187.570312 C 171.664062 187.609375 171.644531 187.664062 171.683594 187.738281 L 171.769531 187.910156 C 171.808594 187.984375 171.863281 188.003906 171.9375 187.96875 L 172.203125 187.832031 L 172.003906 187.4375 Z M 171.738281 187.570312 " fill-opacity="1" fill-rule="nonzero"/><path fill="#252251" d="M 173.277344 187.738281 L 172.222656 187.875 L 171.980469 187.394531 L 172.722656 186.636719 L 172.742188 186.664062 C 173.011719 187.058594 173.183594 187.398438 173.269531 187.707031 Z M 172.253906 187.816406 L 173.207031 187.691406 C 173.121094 187.40625 172.960938 187.085938 172.714844 186.722656 L 172.046875 187.40625 Z M 172.253906 187.816406 " fill-opacity="1" fill-rule="nonzero"/><path fill="#252251" d="M 172.289062 188.140625 C 172.289062 188.179688 172.269531 188.199219 172.230469 188.199219 C 172.191406 188.199219 172.171875 188.179688 172.171875 188.140625 C 172.171875 188.101562 172.191406 188.082031 172.230469 188.082031 C 172.269531 188.082031 172.289062 188.101562 172.289062 188.140625 Z M 172.289062 188.140625 " fill-opacity="1" fill-rule="nonzero"/><path fill="#252251" d="M 173.050781 187.605469 C 173.050781 187.605469 173.046875 187.605469 173.042969 187.605469 L 172.320312 187.71875 C 172.304688 187.722656 172.292969 187.714844 172.289062 187.695312 C 172.289062 187.679688 172.292969 187.667969 172.3125 187.664062 L 173.035156 187.550781 C 173.054688 187.550781 173.0625 187.558594 173.066406 187.574219 C 173.070312 187.589844 173.0625 187.597656 173.050781 187.605469 Z M 173.050781 187.605469 " fill-opacity="1" fill-rule="nonzero"/><path fill="#252251" d="M 171.789062 187.660156 L 171.945312 187.578125 L 171.972656 187.628906 L 171.8125 187.710938 Z M 171.789062 187.660156 " fill-opacity="1" fill-rule="nonzero"/><path fill="#252251" d="M 171.832031 187.746094 L 171.992188 187.664062 L 172.015625 187.714844 L 171.855469 187.796875 Z M 171.832031 187.746094 " fill-opacity="1" fill-rule="nonzero"/><path fill="#252251" d="M 171.871094 187.828125 L 172.03125 187.746094 L 172.054688 187.796875 L 171.898438 187.875 Z M 171.871094 187.828125 " fill-opacity="1" fill-rule="nonzero"/><path fill="#ffffff" d="M 158.671875 285.792969 C 156.097656 285.792969 153.527344 285.714844 150.957031 285.558594 C 148.386719 285.402344 145.824219 285.164062 143.269531 284.851562 C 140.710938 284.539062 138.167969 284.144531 135.636719 283.675781 C 133.105469 283.207031 130.59375 282.65625 128.09375 282.03125 C 125.597656 281.410156 123.121094 280.707031 120.664062 279.929688 C 118.210938 279.15625 115.78125 278.304688 113.378906 277.378906 C 110.976562 276.453125 108.605469 275.453125 106.265625 274.382812 C 103.921875 273.3125 101.617188 272.167969 99.34375 270.957031 C 97.074219 269.742188 94.84375 268.460938 92.648438 267.109375 C 90.457031 265.761719 88.308594 264.34375 86.203125 262.863281 C 84.097656 261.382812 82.039062 259.835938 80.03125 258.226562 C 78.019531 256.621094 76.058594 254.953125 74.152344 253.222656 C 72.242188 251.496094 70.390625 249.707031 68.589844 247.867188 C 66.792969 246.023438 65.050781 244.128906 63.371094 242.179688 C 61.6875 240.230469 60.066406 238.230469 58.507812 236.183594 C 56.949219 234.132812 55.453125 232.039062 54.023438 229.898438 C 52.59375 227.757812 51.226562 225.574219 49.929688 223.351562 C 48.632812 221.125 47.40625 218.863281 46.25 216.566406 C 45.089844 214.265625 44.003906 211.933594 42.992188 209.566406 C 41.976562 207.199219 41.035156 204.804688 40.167969 202.378906 C 39.300781 199.957031 38.507812 197.507812 37.789062 195.035156 C 37.070312 192.5625 36.429688 190.070312 35.867188 187.558594 C 35.304688 185.046875 34.816406 182.519531 34.40625 179.976562 C 33.996094 177.433594 33.667969 174.882812 33.414062 172.320312 C 33.164062 169.757812 32.988281 167.191406 32.894531 164.617188 C 32.800781 162.046875 32.78125 159.472656 32.847656 156.898438 C 32.910156 154.324219 33.050781 151.753906 33.273438 149.1875 C 33.492188 146.625 33.792969 144.066406 34.171875 141.519531 C 34.550781 138.972656 35.003906 136.441406 35.539062 133.921875 C 36.070312 131.402344 36.679688 128.902344 37.367188 126.421875 C 38.054688 123.941406 38.816406 121.484375 39.65625 119.046875 C 40.492188 116.613281 41.40625 114.207031 42.390625 111.828125 C 43.375 109.449219 44.433594 107.105469 45.5625 104.789062 C 46.691406 102.476562 47.894531 100.199219 49.164062 97.960938 C 50.429688 95.71875 51.769531 93.519531 53.171875 91.363281 C 54.578125 89.207031 56.046875 87.09375 57.582031 85.023438 C 59.113281 82.957031 60.710938 80.9375 62.371094 78.96875 C 64.027344 77 65.746094 75.082031 67.519531 73.21875 C 69.296875 71.351562 71.128906 69.546875 73.015625 67.792969 C 74.902344 66.042969 76.839844 64.347656 78.832031 62.714844 C 80.820312 61.082031 82.859375 59.511719 84.945312 58.003906 C 87.035156 56.496094 89.164062 55.054688 91.339844 53.679688 C 93.515625 52.300781 95.734375 50.992188 97.988281 49.753906 C 100.246094 48.511719 102.535156 47.339844 104.863281 46.242188 C 107.191406 45.140625 109.550781 44.113281 111.941406 43.160156 C 114.332031 42.203125 116.75 41.324219 119.195312 40.515625 C 121.640625 39.710938 124.109375 38.976562 126.597656 38.324219 C 129.089844 37.667969 131.597656 37.089844 134.121094 36.589844 C 136.648438 36.085938 139.1875 35.664062 141.738281 35.320312 C 144.289062 34.972656 146.847656 34.707031 149.417969 34.519531 C 151.984375 34.332031 154.554688 34.222656 157.128906 34.191406 C 159.703125 34.160156 162.277344 34.207031 164.847656 34.335938 C 167.421875 34.464844 169.984375 34.671875 172.542969 34.957031 C 175.101562 35.242188 177.652344 35.605469 180.1875 36.046875 C 182.722656 36.488281 185.246094 37.007812 187.75 37.601562 C 190.253906 38.199219 192.738281 38.871094 195.203125 39.621094 C 197.664062 40.367188 200.101562 41.191406 202.515625 42.089844 C 204.929688 42.988281 207.3125 43.960938 209.664062 45.007812 C 212.019531 46.050781 214.335938 47.167969 216.621094 48.355469 C 218.90625 49.542969 221.152344 50.796875 223.359375 52.121094 C 225.566406 53.449219 227.730469 54.839844 229.855469 56.296875 C 231.976562 57.753906 234.050781 59.277344 236.082031 60.863281 C 238.109375 62.449219 240.085938 64.09375 242.015625 65.800781 C 243.941406 67.507812 245.816406 69.273438 247.636719 71.09375 C 249.820312 73.277344 251.921875 75.539062 253.941406 77.875 C 255.960938 80.214844 257.890625 82.625 259.734375 85.105469 C 261.574219 87.582031 263.324219 90.128906 264.976562 92.738281 C 266.628906 95.347656 268.1875 98.015625 269.644531 100.738281 C 271.101562 103.460938 272.457031 106.234375 273.710938 109.058594 C 274.960938 111.882812 276.109375 114.75 277.152344 117.65625 C 278.191406 120.566406 279.125 123.507812 279.953125 126.484375 C 280.777344 129.464844 281.492188 132.464844 282.09375 135.496094 C 282.695312 138.527344 283.1875 141.574219 283.566406 144.640625 C 283.945312 147.707031 284.210938 150.78125 284.363281 153.867188 C 284.515625 156.953125 284.554688 160.039062 284.476562 163.128906 C 284.402344 166.21875 284.214844 169.296875 283.910156 172.371094 C 283.609375 175.445312 283.191406 178.507812 282.664062 181.550781 C 282.136719 184.59375 281.496094 187.613281 280.746094 190.609375 C 279.996094 193.609375 279.136719 196.574219 278.167969 199.507812 C 277.195312 202.4375 276.121094 205.332031 274.9375 208.1875 C 273.757812 211.039062 272.46875 213.847656 271.082031 216.605469 C 269.691406 219.367188 268.203125 222.070312 266.613281 224.71875 C 265.023438 227.371094 263.339844 229.957031 261.5625 232.480469 C 259.78125 235.007812 257.910156 237.464844 255.949219 239.851562 C 253.988281 242.238281 251.945312 244.550781 249.8125 246.789062 C 247.683594 249.023438 245.472656 251.179688 243.183594 253.253906 C 240.890625 255.328125 238.527344 257.3125 236.09375 259.214844 C 233.65625 261.113281 231.152344 262.917969 228.582031 264.636719 C 226.015625 266.351562 223.386719 267.96875 220.695312 269.488281 C 218.007812 271.011719 215.265625 272.429688 212.472656 273.75 C 209.679688 275.070312 206.839844 276.285156 203.957031 277.394531 C 201.074219 278.503906 198.15625 279.507812 195.199219 280.402344 C 192.242188 281.296875 189.257812 282.082031 186.242188 282.753906 C 183.226562 283.429688 180.191406 283.992188 177.136719 284.445312 C 174.078125 284.894531 171.011719 285.234375 167.929688 285.457031 C 164.847656 285.683594 161.761719 285.792969 158.671875 285.792969 Z M 158.671875 61.898438 C 156.796875 61.894531 154.925781 61.945312 153.050781 62.050781 C 151.179688 62.152344 149.3125 62.308594 147.449219 62.519531 C 145.582031 62.730469 143.726562 62.992188 141.878906 63.308594 C 140.03125 63.625 138.195312 63.996094 136.367188 64.417969 C 134.539062 64.839844 132.726562 65.3125 130.925781 65.839844 C 129.125 66.363281 127.339844 66.941406 125.574219 67.570312 C 123.808594 68.199219 122.058594 68.875 120.332031 69.605469 C 118.605469 70.332031 116.898438 71.109375 115.214844 71.9375 C 113.53125 72.761719 111.871094 73.636719 110.238281 74.558594 C 108.605469 75.480469 107 76.445312 105.421875 77.460938 C 103.84375 78.472656 102.296875 79.53125 100.777344 80.632812 C 99.261719 81.734375 97.777344 82.878906 96.324219 84.066406 C 94.871094 85.253906 93.457031 86.480469 92.074219 87.75 C 90.691406 89.015625 89.347656 90.324219 88.042969 91.667969 C 86.734375 93.011719 85.46875 94.394531 84.242188 95.8125 C 83.015625 97.230469 81.828125 98.683594 80.683594 100.167969 C 79.539062 101.652344 78.4375 103.171875 77.382812 104.71875 C 76.324219 106.269531 75.3125 107.847656 74.347656 109.453125 C 73.378906 111.0625 72.460938 112.695312 71.585938 114.355469 C 70.714844 116.015625 69.886719 117.695312 69.109375 119.402344 C 68.335938 121.109375 67.609375 122.839844 66.929688 124.585938 C 66.253906 126.335938 65.625 128.101562 65.046875 129.886719 C 64.472656 131.671875 63.949219 133.472656 63.472656 135.285156 C 63 137.101562 62.582031 138.925781 62.210938 140.765625 C 61.84375 142.605469 61.527344 144.453125 61.265625 146.308594 C 61.003906 148.167969 60.792969 150.027344 60.636719 151.898438 C 60.480469 153.765625 60.378906 155.636719 60.332031 157.511719 C 60.28125 159.386719 60.289062 161.261719 60.347656 163.136719 C 60.40625 165.011719 60.515625 166.882812 60.683594 168.75 C 60.851562 170.617188 61.070312 172.480469 61.34375 174.335938 C 61.613281 176.191406 61.941406 178.035156 62.320312 179.875 C 62.699219 181.710938 63.128906 183.535156 63.613281 185.347656 C 64.09375 187.160156 64.628906 188.957031 65.214844 190.738281 C 65.800781 192.519531 66.4375 194.28125 67.125 196.027344 C 67.8125 197.769531 68.550781 199.496094 69.335938 201.195312 C 70.121094 202.898438 70.957031 204.578125 71.839844 206.234375 C 72.722656 207.886719 73.648438 209.515625 74.625 211.117188 C 75.601562 212.71875 76.621094 214.292969 77.6875 215.835938 C 78.753906 217.378906 79.863281 218.890625 81.015625 220.367188 C 82.167969 221.847656 83.359375 223.292969 84.59375 224.703125 C 85.832031 226.117188 87.105469 227.492188 88.417969 228.828125 C 89.734375 230.167969 91.085938 231.464844 92.472656 232.726562 C 93.859375 233.988281 95.285156 235.207031 96.742188 236.386719 C 98.203125 237.566406 99.691406 238.699219 101.214844 239.792969 C 102.738281 240.886719 104.292969 241.9375 105.875 242.941406 C 107.460938 243.945312 109.070312 244.90625 110.710938 245.816406 C 112.347656 246.730469 114.011719 247.59375 115.699219 248.410156 C 117.386719 249.226562 119.097656 249.996094 120.828125 250.714844 C 122.5625 251.433594 124.3125 252.101562 126.082031 252.71875 C 127.855469 253.339844 129.640625 253.90625 131.445312 254.421875 C 133.246094 254.9375 135.0625 255.402344 136.890625 255.8125 C 138.722656 256.226562 140.5625 256.585938 142.410156 256.890625 C 144.261719 257.199219 146.117188 257.449219 147.984375 257.652344 C 149.847656 257.851562 151.71875 257.996094 153.589844 258.089844 C 155.464844 258.183594 157.335938 258.222656 159.210938 258.207031 C 161.085938 258.191406 162.960938 258.125 164.832031 258.003906 C 166.703125 257.882812 168.570312 257.707031 170.429688 257.476562 C 172.292969 257.25 174.144531 256.964844 175.992188 256.632812 C 177.835938 256.296875 179.671875 255.910156 181.492188 255.46875 C 183.316406 255.027344 185.125 254.535156 186.917969 253.992188 C 188.714844 253.449219 190.492188 252.851562 192.253906 252.207031 C 194.011719 251.5625 195.753906 250.867188 197.476562 250.121094 C 199.195312 249.375 200.894531 248.582031 202.570312 247.738281 C 204.242188 246.894531 205.894531 246.003906 207.519531 245.066406 C 209.140625 244.128906 210.738281 243.148438 212.304688 242.117188 C 213.875 241.089844 215.410156 240.015625 216.917969 238.898438 C 218.425781 237.78125 219.898438 236.621094 221.335938 235.421875 C 222.777344 234.21875 224.179688 232.976562 225.550781 231.695312 C 226.917969 230.414062 228.25 229.09375 229.542969 227.734375 C 230.835938 226.378906 232.089844 224.984375 233.300781 223.554688 C 234.515625 222.125 235.6875 220.660156 236.816406 219.164062 C 237.945312 217.664062 239.03125 216.136719 240.074219 214.578125 C 241.113281 213.019531 242.109375 211.429688 243.0625 209.8125 C 244.011719 208.199219 244.914062 206.554688 245.773438 204.886719 C 246.628906 203.21875 247.4375 201.527344 248.195312 199.8125 C 248.957031 198.097656 249.664062 196.363281 250.324219 194.609375 C 250.984375 192.851562 251.59375 191.078125 252.152344 189.289062 C 252.710938 187.5 253.21875 185.695312 253.675781 183.875 C 254.128906 182.054688 254.53125 180.226562 254.882812 178.382812 C 255.230469 176.539062 255.527344 174.691406 255.773438 172.832031 C 256.015625 170.972656 256.207031 169.105469 256.34375 167.234375 C 256.480469 165.367188 256.566406 163.492188 256.597656 161.617188 C 256.625 159.742188 256.601562 157.867188 256.523438 155.996094 C 256.445312 154.121094 256.316406 152.25 256.128906 150.386719 C 255.945312 148.519531 255.707031 146.660156 255.417969 144.808594 C 255.125 142.953125 254.78125 141.113281 254.382812 139.277344 C 253.988281 137.445312 253.539062 135.625 253.035156 133.820312 C 252.535156 132.011719 251.984375 130.21875 251.378906 128.445312 C 250.773438 126.667969 250.121094 124.914062 249.417969 123.175781 C 248.710938 121.4375 247.957031 119.722656 247.15625 118.027344 C 246.351562 116.332031 245.5 114.660156 244.601562 113.015625 C 243.703125 111.367188 242.757812 109.75 241.765625 108.160156 C 240.773438 106.566406 239.738281 105.003906 238.65625 103.472656 C 237.578125 101.941406 236.453125 100.441406 235.285156 98.972656 C 234.117188 97.503906 232.910156 96.070312 231.660156 94.671875 C 230.410156 93.273438 229.125 91.910156 227.796875 90.585938 C 225.53125 88.320312 223.164062 86.171875 220.6875 84.140625 C 218.214844 82.109375 215.644531 80.203125 212.984375 78.421875 C 210.324219 76.640625 207.578125 74.996094 204.757812 73.484375 C 201.933594 71.972656 199.042969 70.601562 196.085938 69.375 C 193.128906 68.148438 190.117188 67.070312 187.050781 66.136719 C 183.988281 65.203125 180.886719 64.425781 177.746094 63.796875 C 174.605469 63.171875 171.441406 62.699219 168.257812 62.382812 C 165.070312 62.0625 161.875 61.902344 158.671875 61.898438 Z M 158.671875 61.898438 " fill-opacity="1" fill-rule="nonzero"/><g clip-path="url(#853b6cb15e)"><path fill="#ffffff" d="M 337.011719 352.21875 C 335.179688 352.210938 333.421875 351.855469 331.734375 351.148438 C 330.046875 350.441406 328.554688 349.4375 327.265625 348.140625 L 228.074219 249.015625 C 227.429688 248.375 226.855469 247.675781 226.351562 246.921875 C 225.847656 246.167969 225.421875 245.367188 225.074219 244.53125 C 224.726562 243.691406 224.464844 242.824219 224.289062 241.933594 C 224.109375 241.042969 224.023438 240.144531 224.023438 239.238281 C 224.023438 238.328125 224.109375 237.429688 224.289062 236.539062 C 224.464844 235.648438 224.726562 234.78125 225.074219 233.941406 C 225.421875 233.105469 225.847656 232.308594 226.351562 231.550781 C 226.855469 230.796875 227.429688 230.097656 228.074219 229.457031 C 228.714844 228.8125 229.414062 228.238281 230.167969 227.734375 C 230.925781 227.230469 231.722656 226.804688 232.5625 226.457031 C 233.398438 226.109375 234.265625 225.847656 235.15625 225.667969 C 236.046875 225.492188 236.945312 225.402344 237.855469 225.402344 C 238.761719 225.402344 239.660156 225.492188 240.550781 225.667969 C 241.445312 225.847656 242.308594 226.109375 243.148438 226.457031 C 243.988281 226.804688 244.785156 227.230469 245.539062 227.734375 C 246.292969 228.238281 246.992188 228.8125 247.636719 229.457031 L 346.757812 328.648438 C 347.71875 329.613281 348.519531 330.699219 349.160156 331.902344 C 349.800781 333.105469 350.25 334.375 350.515625 335.714844 C 350.78125 337.050781 350.84375 338.398438 350.710938 339.753906 C 350.578125 341.109375 350.25 342.417969 349.730469 343.675781 C 349.207031 344.9375 348.515625 346.09375 347.652344 347.148438 C 346.789062 348.203125 345.792969 349.109375 344.660156 349.871094 C 343.53125 350.628906 342.3125 351.210938 341.011719 351.609375 C 339.707031 352.011719 338.375 352.214844 337.011719 352.21875 Z M 337.011719 352.21875 " fill-opacity="1" fill-rule="nonzero"/></g></svg>