<svg
                    preserveAspectRatio="xMidYMid meet"
                    data-bbox="20 25 160 149.678"
                    xmlns="http://www.w3.org/2000/svg"
                    width="50"
                    height="50"
                    viewBox="20 25 160 149.678"
                    data-type="color"
                    role="presentation"
                    aria-hidden="true"
                    aria-label=""
                  >
                    <g>
                      <path
                        fill="#7373f4"
                        clipRule="evenodd"
                        fillRule="evenodd"
                        d="M69.032 25a7.742 7.742 0 0 1 7.742 7.742v134.194a7.742 7.742 0 1 1-15.484 0V32.742A7.742 7.742 0 0 1 69.032 25zm20.645 12.903a7.742 7.742 0 0 1 7.742 7.742v108.387a7.742 7.742 0 1 1-15.484 0V45.645a7.742 7.742 0 0 1 7.742-7.742zm-41.29 10.323a7.742 7.742 0 0 1 7.742 7.742v87.742a7.742 7.742 0 1 1-15.484 0V55.968a7.742 7.742 0 0 1 7.742-7.742zm103.226 10.322a7.742 7.742 0 0 1 7.742 7.742v67.097a7.742 7.742 0 1 1-15.484 0V66.29a7.742 7.742 0 0 1 7.742-7.742zm-41.29 0a7.742 7.742 0 0 1 7.742 7.742v67.097a7.742 7.742 0 1 1-15.484 0V66.29a7.742 7.742 0 0 1 7.742-7.742zm20.645 12.904a7.742 7.742 0 0 1 7.742 7.742v41.29a7.742 7.742 0 1 1-15.484 0v-41.29a7.742 7.742 0 0 1 7.742-7.742zM27.742 79.194a7.742 7.742 0 0 1 7.742 7.742v23.226A7.742 7.742 0 1 1 20 110.161V86.935a7.742 7.742 0 0 1 7.742-7.741z"
                        data-Color="1"
                      ></path>
                      <path
                        fill="#fca2c0"
                        clipRule="evenodd"
                        fillRule="evenodd"
                        d="M172.258 81.774A7.742 7.742 0 0 1 180 89.516v20.645a7.742 7.742 0 1 1-15.484 0V89.516a7.742 7.742 0 0 1 7.742-7.742z"
                        data-Color="2"
                      ></path>
                      <path
                        opacity=".9"
                        fill="#fca2c0"
                        clipRule="evenodd"
                        fillRule="evenodd"
                        d="M151.613 58.548a7.742 7.742 0 0 1 7.742 7.742v67.097a7.742 7.742 0 1 1-15.484 0V66.29a7.742 7.742 0 0 1 7.742-7.742z"
                        data-Color="2"
                      ></path>
                      <path
                        opacity=".75"
                        fill="#fca2c0"
                        clipRule="evenodd"
                        fillRule="evenodd"
                        d="M130.968 71.452a7.742 7.742 0 0 1 7.742 7.742v41.29a7.742 7.742 0 1 1-15.484 0v-41.29a7.742 7.742 0 0 1 7.742-7.742z"
                        data-Color="2"
                      ></path>
                      <path
                        opacity=".6"
                        fill="#fca2c0"
                        clipRule="evenodd"
                        fillRule="evenodd"
                        d="M110.323 58.548a7.742 7.742 0 0 1 7.742 7.742v67.097a7.742 7.742 0 1 1-15.484 0V66.29a7.742 7.742 0 0 1 7.742-7.742z"
                        data-Color="2"
                      ></path>
                      <path
                        opacity=".45"
                        fill="#fca2c0"
                        clipRule="evenodd"
                        fillRule="evenodd"
                        d="M89.677 37.903a7.742 7.742 0 0 1 7.742 7.742v108.387a7.742 7.742 0 1 1-15.484 0V45.645a7.742 7.742 0 0 1 7.742-7.742z"
                        data-Color="2"
                      ></path>
                      <path
                        opacity=".3"
                        fill="#fca2c0"
                        clipRule="evenodd"
                        fillRule="evenodd"
                        d="M69.032 25a7.742 7.742 0 0 1 7.742 7.742v134.194a7.742 7.742 0 1 1-15.484 0V32.742A7.742 7.742 0 0 1 69.032 25z"
                        data-Color="2"
                      ></path>
                      <path
                        opacity=".15"
                        fill="#fca2c0"
                        clipRule="evenodd"
                        fillRule="evenodd"
                        d="M48.387 48.226a7.742 7.742 0 0 1 7.742 7.742v87.742a7.742 7.742 0 1 1-15.484 0V55.968a7.742 7.742 0 0 1 7.742-7.742z"
                        data-Color="2"
                      ></path>
                    </g>
</svg>